<svg xmlns="http://www.w3.org/2000/svg" viewBox="2974.71 877.703 59.708 61.23">
  <defs>
    <style>
      .cls-1 {
        fill: none;
        stroke: #000;
        stroke-linecap: round;
        stroke-linejoin: round;
        stroke-miterlimit: 10;
        stroke-width: 4px;
      }
    </style>
  </defs>
  <g id="linkedin" transform="translate(2976.783 879.739)">
    <path id="Tracé_3" data-name="Tracé 3" class="cls-1" d="M31.834,47.77c-4.114,15.91,5.8,32.016,20.85,35.293,14.7,3.2,29.327-6.724,32.938-21.092C89.284,47.4,80.74,31.654,66.19,27.654,43.41,21.536,33.22,42.166,33.219,43.2" transform="translate(-30.899 -26.522)"/>
    <path id="linkedin-2" data-name="linkedin" class="cls-1" d="M88.571,103.561c-.1-5.677.264-16.568-.255-17.1s-4.6-2.137-5.362-3.363A2.358,2.358,0,0,1,85.145,79.4c2.734,0,3.08,2.337,2.368,3.859s-4.742,2.646-5.2,3.265-.655,18.415,0,18.851,8.88.4,9.608-.146-.91-18.2,0-18.633a14.233,14.233,0,0,1,5.168-.291c.473.218.182,2.074.509,2.256s2.743-3.014,6.551-2.548a6.885,6.885,0,0,1,5.75,5.1c.4,2.365.242,9.317.146,13.975-1.941.073-3.882.182-5.823.255-.073-3.931.291-9.062-.218-11.755s-6.022-2.656-5.968,0,.437,11.755-.728,11.718" transform="translate(-68.138 -65.143)"/>
  </g>
</svg>
